<svg width="20" height="20" viewBox="0 0 20 20" fill="none" xmlns="http://www.w3.org/2000/svg">
<path d="M12.384 8.9197C12.2692 8.96863 12.1462 8.99586 12.0214 8.99999C11.824 8.99846 11.6314 8.93912 11.4676 8.82936C11.2971 8.72357 11.1661 8.56488 11.095 8.37769C11.0081 8.20028 10.9799 7.99998 11.0144 7.80558C11.0507 7.60845 11.1454 7.42666 11.2863 7.28365L12.2933 6.27994C12.3912 6.19128 12.5036 6.11999 12.6257 6.06916C12.8401 5.98542 13.0769 5.97747 13.2965 6.04665C13.5161 6.11583 13.7053 6.25795 13.8325 6.44932C13.9597 6.64068 14.0173 6.86973 13.9956 7.09827C13.9739 7.3268 13.8742 7.54102 13.7133 7.70521L12.7062 8.70892C12.6114 8.79663 12.5024 8.86787 12.384 8.9197Z" fill="#5C5F62"/>
<path fill-rule="evenodd" clip-rule="evenodd" d="M9.7426 1.02985C10.2784 1.1638 10.6042 1.70673 10.4702 2.24253L9.9702 4.24253C9.83626 4.77832 9.29332 5.10408 8.75753 4.97013C8.22173 4.83619 7.89597 4.29325 8.02992 3.75746L8.52992 1.75746C8.66387 1.22166 9.2068 0.895901 9.7426 1.02985Z" fill="#5C5F62"/>
<path fill-rule="evenodd" clip-rule="evenodd" d="M18.9435 10.158C19.0954 10.689 18.7881 11.2425 18.2571 11.3944L16.2751 11.9614C15.7441 12.1133 15.1905 11.806 15.0386 11.275C14.8867 10.744 15.194 10.1905 15.725 10.0386L17.7071 9.47157C18.2381 9.31967 18.7917 9.62699 18.9435 10.158Z" fill="#5C5F62"/>
<path d="M4.51496 7.51783L0.182396 16.8767C-0.179851 17.7186 0.00769484 18.6962 0.655764 19.3443C1.30394 19.9925 2.28179 20.18 3.12374 19.8175L12.4911 15.4791C12.621 15.4143 12.7337 15.3197 12.8201 15.2031C12.9064 15.0865 12.9639 14.9511 12.9878 14.808C13.0116 14.6638 13.0006 14.516 12.9558 14.3769C12.911 14.2378 12.8337 14.1114 12.7302 14.0082L5.98691 7.26962C5.88357 7.16624 5.75706 7.08896 5.61787 7.0442C5.47868 6.99943 5.33082 6.98847 5.18654 7.01221C5.04244 7.03709 4.90635 7.09593 4.78956 7.18386C4.67277 7.2718 4.57863 7.38628 4.51496 7.51783Z" fill="#5C5F62"/>
<path fill-rule="evenodd" clip-rule="evenodd" d="M1.80134 3.98025C1.90962 4.00208 1.99797 4.09044 2.01981 4.19872C2.11197 4.6558 2.51582 4.99999 3.00006 4.99999C3.4843 4.99999 3.88816 4.6558 3.98032 4.19872C4.00215 4.09044 4.09051 4.00208 4.19878 3.98025C4.65587 3.88809 5.00006 3.48424 5.00006 2.99999C5.00006 2.51575 4.65587 2.1119 4.19878 2.01974C4.09051 1.99791 4.00215 1.90955 3.98032 1.80127C3.88816 1.34419 3.4843 0.999992 3.00006 0.999992C2.51582 0.999992 2.11197 1.34419 2.01981 1.80127C1.99797 1.90955 1.90962 1.99791 1.80134 2.01974C1.34425 2.1119 1.00006 2.51575 1.00006 2.99999C1.00006 3.48424 1.34425 3.88809 1.80134 3.98025Z" fill="#5C5F62"/>
<path fill-rule="evenodd" clip-rule="evenodd" d="M15.8013 3.98025C15.9096 4.00208 15.998 4.09044 16.0198 4.19872C16.112 4.6558 16.5158 4.99999 17.0001 4.99999C17.4843 4.99999 17.8882 4.6558 17.9803 4.19872C18.0021 4.09044 18.0905 4.00208 18.1988 3.98025C18.6559 3.88809 19.0001 3.48424 19.0001 2.99999C19.0001 2.51575 18.6559 2.1119 18.1988 2.01974C18.0905 1.99791 18.0021 1.90955 17.9803 1.80127C17.8882 1.34419 17.4843 0.999992 17.0001 0.999992C16.5158 0.999992 16.112 1.34419 16.0198 1.80127C15.998 1.90955 15.9096 1.99791 15.8013 2.01974C15.3443 2.1119 15.0001 2.51575 15.0001 2.99999C15.0001 3.48424 15.3443 3.88809 15.8013 3.98025Z" fill="#5C5F62"/>
<path fill-rule="evenodd" clip-rule="evenodd" d="M15.8013 17.9802C15.9096 18.0021 15.998 18.0904 16.0198 18.1987C16.112 18.6558 16.5158 19 17.0001 19C17.4843 19 17.8882 18.6558 17.9803 18.1987C18.0021 18.0904 18.0905 18.0021 18.1988 17.9802C18.6559 17.8881 19.0001 17.4842 19.0001 17C19.0001 16.5157 18.6559 16.1119 18.1988 16.0197C18.0905 15.9979 18.0021 15.9095 17.9803 15.8013C17.8882 15.3442 17.4843 15 17.0001 15C16.5158 15 16.112 15.3442 16.0198 15.8013C15.998 15.9095 15.9096 15.9979 15.8013 16.0197C15.3443 16.1119 15.0001 16.5157 15.0001 17C15.0001 17.4842 15.3443 17.8881 15.8013 17.9802Z" fill="#5C5F62"/>
</svg>
