<svg width="40" height="40" viewBox="0 0 40 40" fill="none" xmlns="http://www.w3.org/2000/svg">
<path fill-rule="evenodd" clip-rule="evenodd" d="M0 2C0 0.89543 0.998482 0 2.23017 0H5.57543C7.42297 0 8.92069 1.34314 8.92069 3V4.1211L36.8629 5.93635C38.8113 6.04556 40.2419 7.62161 39.9658 9.35477L38.0432 21.4243C37.8078 22.9022 36.3963 24 34.7316 24H8.92069V28H31.2383C34.9334 28 37.9288 30.6863 37.9288 34C37.9288 37.3137 34.9334 40 31.2383 40C27.5433 40 24.5478 37.3137 24.5478 34C24.5478 33.2987 24.682 32.6256 24.9285 32H13.0003C13.2469 32.6256 13.381 33.2987 13.381 34C13.381 37.3137 10.3856 40 6.69052 40C2.99545 40 0 37.3137 0 34C0 31.3876 1.86177 29.1651 4.46035 28.3414V6.01847C4.46025 6.00745 4.46025 5.99641 4.46035 5.98535V4H2.23017C0.998482 4 0 3.10457 0 2ZM8.92069 8.1289V20H33.7645L35.3796 9.86102L8.92069 8.1289ZM29.0082 34C29.0082 32.8954 30.0066 32 31.2383 32C32.47 32 33.4685 32.8954 33.4685 34C33.4685 35.1046 32.47 36 31.2383 36C30.0066 36 29.0082 35.1046 29.0082 34ZM4.46035 34C4.46035 32.8954 5.45883 32 6.69052 32C7.92221 32 8.92069 32.8954 8.92069 34C8.92069 35.1046 7.92221 36 6.69052 36C5.45883 36 4.46035 35.1046 4.46035 34Z" fill="#7879F1"/>
</svg>
