<svg width="60" height="60" viewBox="0 0 60 60" fill="none" xmlns="http://www.w3.org/2000/svg">
<path d="M28.3334 25H35C35.4421 25 35.866 24.8244 36.1785 24.5119C36.4911 24.1993 36.6667 23.7754 36.6667 23.3334C36.6667 22.8913 36.4911 22.4674 36.1785 22.1548C35.866 21.8423 35.4421 21.6667 35 21.6667H31.6667V20C31.6667 19.558 31.4911 19.1341 31.1785 18.8215C30.866 18.5089 30.4421 18.3334 30 18.3334C29.558 18.3334 29.1341 18.5089 28.8215 18.8215C28.509 19.1341 28.3334 19.558 28.3334 20V21.6667C27.0073 21.6667 25.7355 22.1935 24.7978 23.1312C23.8601 24.0688 23.3334 25.3406 23.3334 26.6667C23.3334 27.9928 23.8601 29.2645 24.7978 30.2022C25.7355 31.1399 27.0073 31.6667 28.3334 31.6667H31.6667C32.1087 31.6667 32.5326 31.8423 32.8452 32.1548C33.1578 32.4674 33.3334 32.8913 33.3334 33.3334C33.3334 33.7754 33.1578 34.1993 32.8452 34.5119C32.5326 34.8244 32.1087 35 31.6667 35H25C24.558 35 24.1341 35.1756 23.8215 35.4882C23.509 35.8007 23.3334 36.2247 23.3334 36.6667C23.3334 37.1087 23.509 37.5326 23.8215 37.8452C24.1341 38.1578 24.558 38.3334 25 38.3334H28.3334V40C28.3334 40.442 28.509 40.866 28.8215 41.1785C29.1341 41.4911 29.558 41.6667 30 41.6667C30.4421 41.6667 30.866 41.4911 31.1785 41.1785C31.4911 40.866 31.6667 40.442 31.6667 40V38.3334C32.9928 38.3334 34.2646 37.8066 35.2022 36.8689C36.1399 35.9312 36.6667 34.6594 36.6667 33.3334C36.6667 32.0073 36.1399 30.7355 35.2022 29.7978C34.2646 28.8601 32.9928 28.3334 31.6667 28.3334H28.3334C27.8913 28.3334 27.4674 28.1578 27.1549 27.8452C26.8423 27.5326 26.6667 27.1087 26.6667 26.6667C26.6667 26.2247 26.8423 25.8007 27.1549 25.4882C27.4674 25.1756 27.8913 25 28.3334 25ZM30 11.6667C26.374 11.6667 22.8295 12.7419 19.8146 14.7564C16.7997 16.7709 14.4498 19.6342 13.0622 22.9842C11.6746 26.3341 11.3116 30.0204 12.019 33.5767C12.7264 37.133 14.4724 40.3997 17.0364 42.9636C19.6004 45.5276 22.8671 47.2737 26.4234 47.9811C29.9797 48.6885 33.6659 48.3254 37.0159 46.9378C40.3659 45.5502 43.2292 43.2004 45.2436 40.1855C47.2581 37.1706 48.3334 33.626 48.3334 30C48.3334 25.1377 46.4018 20.4746 42.9637 17.0364C39.5255 13.5982 34.8623 11.6667 30 11.6667ZM30 45C27.0333 45 24.1332 44.1203 21.6665 42.4721C19.1997 40.8238 17.2772 38.4812 16.1418 35.7403C15.0065 32.9994 14.7095 29.9834 15.2882 27.0737C15.867 24.164 17.2956 21.4912 19.3934 19.3934C21.4912 17.2956 24.164 15.867 27.0737 15.2882C29.9834 14.7095 32.9994 15.0065 35.7403 16.1418C38.4812 17.2771 40.8239 19.1997 42.4721 21.6665C44.1203 24.1332 45 27.0333 45 30C45 33.9783 43.4197 37.7936 40.6066 40.6066C37.7936 43.4197 33.9783 45 30 45Z" fill="#7879F1"/>
</svg>
