<svg width="55" height="56" viewBox="0 0 55 56" fill="none" xmlns="http://www.w3.org/2000/svg">
<path opacity="0.3" d="M14.9875 11.9583H11.55C11.7562 14.9833 12.3521 17.8937 13.2687 20.6437L16.0187 17.8708C15.4687 15.9687 15.125 13.975 14.9875 11.9583ZM34.8333 42.2312C37.6062 43.1708 40.5167 43.7666 43.5417 43.9729V40.5354C41.525 40.375 39.5312 40.0312 37.5833 39.5041L34.8333 42.2312Z" fill="#7879F1"/>
<path d="M25.2083 21.125H29.7917V25.7083H25.2083V21.125ZM34.375 21.125H38.9583V25.7083H34.375V21.125ZM45.8333 36.0208C42.9688 36.0208 40.2188 35.5625 37.6521 34.7146C37.4229 34.6458 37.1708 34.6 36.9417 34.6C36.3458 34.6 35.7729 34.8292 35.3146 35.2646L30.2729 40.3063C23.7875 37.0063 18.4708 31.7125 15.1708 25.2271L20.2125 20.1625C20.8542 19.5437 21.0375 18.65 20.7854 17.8479C19.9375 15.2813 19.4792 12.5312 19.4792 9.66667C19.4792 8.40625 18.4479 7.375 17.1875 7.375H9.16667C7.90625 7.375 6.875 8.40625 6.875 9.66667C6.875 31.1854 24.3146 48.625 45.8333 48.625C47.0938 48.625 48.125 47.5938 48.125 46.3333V38.3125C48.125 37.0521 47.0938 36.0208 45.8333 36.0208ZM11.5271 11.9583H14.9646C15.125 13.975 15.4688 15.9688 16.0188 17.8938L13.2688 20.6667C12.3292 17.8938 11.7333 14.9833 11.5271 11.9583ZM43.5417 43.9729C40.5167 43.7667 37.5833 43.1708 34.8333 42.2313L37.5833 39.4813C39.5312 40.0312 41.525 40.375 43.5417 40.5125V43.9729ZM43.5417 21.125H48.125V25.7083H43.5417V21.125Z" fill="#7879F1"/>
</svg>
