<svg width="60" height="60" viewBox="0 0 60 60" fill="none" xmlns="http://www.w3.org/2000/svg">
<path d="M42.5 40.569C48.326 41.9418 52.5 45.6459 52.5 50" stroke="#7879F1" stroke-width="2" stroke-linecap="round" stroke-linejoin="round"/>
<path d="M7.5 50C7.5 44.4772 14.2157 40 22.5 40C30.7843 40 37.5 44.4772 37.5 50" stroke="#7879F1" stroke-width="2" stroke-linecap="round" stroke-linejoin="round"/>
<path d="M37.5 32.5C43.0228 32.5 47.5 28.0228 47.5 22.5C47.5 16.9772 43.0228 12.5 37.5 12.5" stroke="#7879F1" stroke-width="2" stroke-linecap="round" stroke-linejoin="round"/>
<path d="M22.5 32.5C28.0228 32.5 32.5 28.0228 32.5 22.5C32.5 16.9772 28.0228 12.5 22.5 12.5C16.9772 12.5 12.5 16.9772 12.5 22.5C12.5 28.0228 16.9772 32.5 22.5 32.5Z" stroke="#7879F1" stroke-width="2" stroke-linecap="round" stroke-linejoin="round"/>
</svg>
