<svg width="45" height="45" viewBox="0 0 45 45" fill="none" xmlns="http://www.w3.org/2000/svg">
<path d="M3.375 0C1.51104 0 0 1.67893 0 3.75V7.5H45V3.75C45 1.67893 43.489 0 41.625 0H3.375Z" fill="#7879F1"/>
<path fill-rule="evenodd" clip-rule="evenodd" d="M0 31.25V12.5H45V20H31.5C25.2966 20 20.25 25.5889 20.25 32.4675C20.25 33.8661 20.25 33.75 20.25 35H3.375C1.51104 35 0 33.3211 0 31.25ZM4.5 22.5H15.75V17.5H4.5V22.5Z" fill="#7879F1"/>
<path d="M33.75 28.75C33.75 30.8211 32.239 32.5 30.375 32.5C28.511 32.5 27 30.8211 27 28.75C27 26.6789 28.511 25 30.375 25C32.239 25 33.75 26.6789 33.75 28.75Z" fill="#7879F1"/>
<path d="M45 41.25C45 43.3211 43.489 45 41.625 45C39.761 45 38.25 43.3211 38.25 41.25C38.25 39.1789 39.761 37.5 41.625 37.5C43.489 37.5 45 39.1789 45 41.25Z" fill="#7879F1"/>
<path fill-rule="evenodd" clip-rule="evenodd" d="M44.341 25.7322C45.2197 26.7085 45.2197 28.2915 44.341 29.2678L30.841 44.2678C29.9623 45.2441 28.5377 45.2441 27.659 44.2678C26.7803 43.2915 26.7803 41.7085 27.659 40.7322L41.159 25.7322C42.0377 24.7559 43.4623 24.7559 44.341 25.7322Z" fill="#7879F1"/>
</svg>
