<svg width="50" height="50" viewBox="0 0 50 50" fill="none" xmlns="http://www.w3.org/2000/svg">
<path d="M29.1667 23.9583C28.1365 23.9583 27.1296 24.2638 26.2731 24.8361C25.4165 25.4084 24.749 26.2218 24.3548 27.1735C23.9606 28.1252 23.8574 29.1724 24.0584 30.1828C24.2594 31.1931 24.7554 32.1211 25.4838 32.8495C26.2122 33.5779 27.1402 34.074 28.1506 34.2749C29.1609 34.4759 30.2081 34.3727 31.1598 33.9785C32.1115 33.5843 32.9249 32.9168 33.4972 32.0603C34.0695 31.2038 34.375 30.1968 34.375 29.1667C34.375 27.7853 33.8262 26.4606 32.8495 25.4838C31.8727 24.5071 30.548 23.9583 29.1667 23.9583ZM29.1667 31.7708C28.6516 31.7708 28.1481 31.6181 27.7199 31.3319C27.2916 31.0458 26.9578 30.6391 26.7607 30.1632C26.5636 29.6874 26.512 29.1638 26.6125 28.6586C26.713 28.1535 26.961 27.6894 27.3252 27.3252C27.6894 26.961 28.1534 26.713 28.6586 26.6125C29.1638 26.5121 29.6874 26.5636 30.1632 26.7607C30.6391 26.9578 31.0458 27.2916 31.3319 27.7199C31.6181 28.1481 31.7708 28.6516 31.7708 29.1667C31.7708 29.8573 31.4964 30.5197 31.0081 31.0081C30.5197 31.4965 29.8573 31.7708 29.1667 31.7708Z" fill="#7879F1"/>
<path d="M43.4896 29.1667C43.5021 28.2323 43.1793 27.3244 42.5796 26.6077C41.98 25.891 41.1433 25.413 40.2214 25.2604C40.0768 24.8384 39.9072 24.4253 39.7135 24.0234C40.2245 23.269 40.4557 22.3597 40.3671 21.4529C40.2785 20.546 39.8756 19.6987 39.2282 19.0575C38.5808 18.4163 37.7297 18.0216 36.822 17.9416C35.9143 17.8617 35.0073 18.1016 34.2578 18.6198C33.8729 18.428 33.4773 18.2584 33.0729 18.112C32.9222 17.1985 32.452 16.3683 31.7461 15.7693C31.0402 15.1703 30.1445 14.8415 29.2188 14.8415C28.293 14.8415 27.3973 15.1703 26.6914 15.7693C25.9855 16.3683 25.5153 17.1985 25.3646 18.112C24.9425 18.2565 24.5295 18.4261 24.1276 18.6198C23.3789 18.0313 22.441 17.7366 21.4902 17.7912C20.5395 17.8457 19.6414 18.2456 18.9648 18.9158C18.2882 19.586 17.8798 20.4802 17.8162 21.4304C17.7527 22.3806 18.0385 23.3212 18.6198 24.0755C18.4261 24.4774 18.2565 24.8905 18.112 25.3125C17.1985 25.4632 16.3683 25.9334 15.7693 26.6393C15.1703 27.3452 14.8415 28.2409 14.8415 29.1667C14.8415 30.0925 15.1703 30.9882 15.7693 31.6941C16.3683 32.4 17.1985 32.8702 18.112 33.0208C18.2565 33.4429 18.4261 33.856 18.6198 34.2578C18.0738 35.0103 17.8141 35.9328 17.8873 36.8596C17.9605 37.7864 18.3619 38.6567 19.0193 39.3141C19.6767 39.9714 20.547 40.3728 21.4737 40.446C22.4005 40.5193 23.3231 40.2595 24.0755 39.7135C24.4774 39.9073 24.8905 40.0768 25.3125 40.2214C25.4632 41.1348 25.9334 41.965 26.6393 42.564C27.3452 43.163 28.2409 43.4919 29.1667 43.4919C30.0925 43.4919 30.9882 43.163 31.6941 42.564C32.4 41.965 32.8702 41.1348 33.0208 40.2214C33.4429 40.0768 33.8559 39.9073 34.2578 39.7135C35.0103 40.2595 35.9328 40.5193 36.8596 40.446C37.7864 40.3728 38.6567 39.9714 39.3141 39.3141C39.9714 38.6567 40.3728 37.7864 40.446 36.8596C40.5193 35.9328 40.2595 35.0103 39.7135 34.2578C39.9072 33.856 40.0768 33.4429 40.2214 33.0208C41.1344 32.8697 41.9641 32.3993 42.5626 31.6934C43.1612 30.9876 43.4897 30.0921 43.4896 29.1667ZM39.5833 30.4688H39.2448C38.9491 30.4594 38.659 30.551 38.4224 30.7285C38.1857 30.906 38.0165 31.1588 37.9427 31.4453C37.735 32.2706 37.4059 33.0605 36.9661 33.7891C36.8221 34.0378 36.7644 34.3273 36.8021 34.6123C36.8398 34.8973 36.9707 35.1618 37.1745 35.3646L37.4089 35.612C37.5822 35.7083 37.7313 35.843 37.8447 36.0057C37.9581 36.1684 38.0328 36.3548 38.0632 36.5508C38.0935 36.7468 38.0787 36.9471 38.0199 37.1365C37.961 37.3259 37.8597 37.4993 37.7236 37.6436C37.5875 37.7879 37.4203 37.8992 37.2347 37.969C37.049 38.0387 36.8499 38.0652 36.6525 38.0463C36.4551 38.0275 36.2646 37.9637 36.0955 37.86C35.9265 37.7563 35.7834 37.6154 35.6771 37.4479L35.4297 37.2135C35.226 36.99 34.9508 36.8444 34.6515 36.8016C34.3521 36.7589 34.0472 36.8216 33.7891 36.9792C33.0605 37.4189 32.2706 37.7481 31.4453 37.9557C31.1588 38.0295 30.906 38.1987 30.7285 38.4354C30.551 38.6721 30.4594 38.9621 30.4688 39.2578V39.5833C30.4688 39.9287 30.3316 40.2599 30.0874 40.5041C29.8432 40.7482 29.512 40.8854 29.1667 40.8854C28.8213 40.8854 28.4901 40.7482 28.246 40.5041C28.0018 40.2599 27.8646 39.9287 27.8646 39.5833V39.2448C27.8739 38.9491 27.7823 38.659 27.6048 38.4224C27.4273 38.1857 27.1745 38.0165 26.888 37.9427C26.0627 37.735 25.2729 37.4059 24.5443 36.9662C24.342 36.8514 24.1127 36.793 23.8802 36.7969C23.5386 36.7983 23.2113 36.9339 22.9688 37.1745L22.7214 37.4089C22.625 37.5822 22.4904 37.7313 22.3277 37.8447C22.165 37.9581 21.9785 38.0328 21.7825 38.0632C21.5865 38.0935 21.3862 38.0787 21.1968 38.0199C21.0074 37.961 20.834 37.8597 20.6897 37.7236C20.5455 37.5875 20.4342 37.4203 20.3644 37.2347C20.2946 37.049 20.2681 36.8499 20.287 36.6525C20.3059 36.4551 20.3696 36.2646 20.4733 36.0955C20.577 35.9265 20.718 35.7834 20.8854 35.6771L21.1198 35.4297C21.3433 35.226 21.4889 34.9508 21.5317 34.6515C21.5745 34.3521 21.5117 34.0472 21.3542 33.7891C20.9144 33.0605 20.5853 32.2706 20.3776 31.4453C20.3038 31.1588 20.1346 30.906 19.898 30.7285C19.6613 30.551 19.3712 30.4594 19.0755 30.4688H18.75C18.4047 30.4688 18.0735 30.3316 17.8293 30.0874C17.5851 29.8432 17.4479 29.512 17.4479 29.1667C17.4479 28.8213 17.5851 28.4901 17.8293 28.246C18.0735 28.0018 18.4047 27.8646 18.75 27.8646H19.0885C19.3842 27.8739 19.6743 27.7823 19.911 27.6048C20.1476 27.4273 20.3168 27.1745 20.3906 26.888C20.5983 26.0627 20.9274 25.2729 21.3672 24.5443C21.5113 24.2955 21.569 24.006 21.5313 23.721C21.4936 23.436 21.3626 23.1715 21.1589 22.9688L20.9245 22.7214C20.7112 22.4723 20.5997 22.1519 20.6124 21.8242C20.625 21.4965 20.7609 21.1856 20.9928 20.9537C21.2247 20.7218 21.5355 20.586 21.8632 20.5733C22.1909 20.5606 22.5113 20.6721 22.7604 20.8854L23.0078 21.1198C23.2106 21.3236 23.4751 21.4545 23.7601 21.4922C24.0451 21.5299 24.3346 21.4722 24.5833 21.3281C25.3119 20.8884 26.1018 20.5592 26.9271 20.3516C27.2136 20.2778 27.4664 20.1086 27.6439 19.8719C27.8214 19.6352 27.913 19.3452 27.9036 19.0495V18.75C27.9036 18.4047 28.0408 18.0735 28.285 17.8293C28.5292 17.5851 28.8604 17.4479 29.2057 17.4479C29.5511 17.4479 29.8823 17.5851 30.1264 17.8293C30.3706 18.0735 30.5078 18.4047 30.5078 18.75V19.0885C30.4985 19.3842 30.5901 19.6743 30.7676 19.911C30.9451 20.1476 31.1979 20.3168 31.4844 20.3906C32.3097 20.5983 33.0995 20.9274 33.8281 21.3672C34.0769 21.5113 34.3664 21.569 34.6514 21.5313C34.9364 21.4936 35.2009 21.3626 35.4036 21.1589L35.6771 20.8854C35.7938 20.7491 35.9375 20.6384 36.099 20.5603C36.2605 20.4821 36.4365 20.4382 36.6158 20.4313C36.7951 20.4243 36.974 20.4545 37.141 20.52C37.3081 20.5855 37.4599 20.6848 37.5868 20.8117C37.7137 20.9386 37.813 21.0903 37.8784 21.2574C37.9439 21.4245 37.9741 21.6033 37.9672 21.7826C37.9603 21.9619 37.9163 22.1379 37.8382 22.2994C37.76 22.461 37.6493 22.6046 37.513 22.7214L37.2786 22.9688C37.0601 23.1603 36.9118 23.4194 36.8576 23.7049C36.8033 23.9904 36.8461 24.2859 36.9792 24.5443C37.4189 25.2729 37.7481 26.0627 37.9557 26.888C38.0295 27.1745 38.1987 27.4273 38.4354 27.6048C38.6721 27.7823 38.9621 27.8739 39.2578 27.8646H39.5833C39.9287 27.8646 40.2599 28.0018 40.504 28.246C40.7482 28.4901 40.8854 28.8213 40.8854 29.1667C40.8854 29.512 40.7482 29.8432 40.504 30.0874C40.2599 30.3316 39.9287 30.4688 39.5833 30.4688Z" fill="#7879F1"/>
</svg>
