<svg width="45" height="45" viewBox="0 0 45 45" fill="none" xmlns="http://www.w3.org/2000/svg">
<path d="M15.75 9.47368H27V14.2105H15.75V9.47368Z" fill="#7879F1"/>
<path d="M27 18.9474H15.75V23.6842H27V18.9474Z" fill="#7879F1"/>
<path fill-rule="evenodd" clip-rule="evenodd" d="M36 37.8947C36 41.8189 32.9779 45 29.25 45H6.75C3.02208 45 0 41.8189 0 37.8947V34.3421C0 32.38 1.51104 30.7895 3.375 30.7895H6.75V7.10526C6.75 3.18113 9.77208 0 13.5 0H38.25C41.9779 0 45 3.18113 45 7.10526C45 11.0294 41.9779 14.2105 38.25 14.2105H36V37.8947ZM11.25 7.10526C11.25 5.79722 12.2574 4.73684 13.5 4.73684H31.8841C31.6353 5.47763 31.5 6.27481 31.5 7.10526V37.8947C31.5 39.2028 30.4926 40.2632 29.25 40.2632C28.0074 40.2632 27 39.2028 27 37.8947V30.7895H11.25V7.10526ZM38.25 4.73684C37.0074 4.73684 36 5.79722 36 7.10526V9.47368H38.25C39.4926 9.47368 40.5 8.41331 40.5 7.10526C40.5 5.79722 39.4926 4.73684 38.25 4.73684ZM22.5 37.8947C22.5 38.7252 22.6353 39.5224 22.8841 40.2632H6.75C5.50736 40.2632 4.5 39.2028 4.5 37.8947V35.5263H22.5V37.8947Z" fill="#7879F1"/>
</svg>
