<svg width="60" height="60" viewBox="0 0 60 60" fill="none" xmlns="http://www.w3.org/2000/svg">
<path d="M21.6666 35H26.6666C27.1087 35 27.5326 34.8244 27.8452 34.5118C28.1577 34.1993 28.3333 33.7753 28.3333 33.3333C28.3333 32.8913 28.1577 32.4674 27.8452 32.1548C27.5326 31.8422 27.1087 31.6666 26.6666 31.6666H21.6666C21.2246 31.6666 20.8007 31.8422 20.4881 32.1548C20.1756 32.4674 20 32.8913 20 33.3333C20 33.7753 20.1756 34.1993 20.4881 34.5118C20.8007 34.8244 21.2246 35 21.6666 35ZM41.6666 18.3333H18.3333C17.0072 18.3333 15.7355 18.8601 14.7978 19.7978C13.8601 20.7355 13.3333 22.0072 13.3333 23.3333V38.3333C13.3333 39.6594 13.8601 40.9312 14.7978 41.8688C15.7355 42.8065 17.0072 43.3333 18.3333 43.3333H41.6666C42.9927 43.3333 44.2645 42.8065 45.2022 41.8688C46.1399 40.9312 46.6666 39.6594 46.6666 38.3333V23.3333C46.6666 22.0072 46.1399 20.7355 45.2022 19.7978C44.2645 18.8601 42.9927 18.3333 41.6666 18.3333ZM43.3333 38.3333C43.3333 38.7753 43.1577 39.1993 42.8452 39.5118C42.5326 39.8244 42.1087 40 41.6666 40H18.3333C17.8913 40 17.4674 39.8244 17.1548 39.5118C16.8422 39.1993 16.6666 38.7753 16.6666 38.3333V28.3333H43.3333V38.3333ZM43.3333 25H16.6666V23.3333C16.6666 22.8913 16.8422 22.4674 17.1548 22.1548C17.4674 21.8422 17.8913 21.6666 18.3333 21.6666H41.6666C42.1087 21.6666 42.5326 21.8422 42.8452 22.1548C43.1577 22.4674 43.3333 22.8913 43.3333 23.3333V25Z" fill="#7879F1"/>
</svg>
