<svg width="45" height="45" viewBox="0 0 45 45" fill="none" xmlns="http://www.w3.org/2000/svg">
<path d="M5.74606 7.03733L4.52763 14.2929C4.47905 14.5829 4.49467 14.8799 4.57341 15.1632C4.65216 15.4466 4.79213 15.7096 4.98362 15.9339C5.17511 16.1582 5.41352 16.3384 5.68228 16.4621C5.95105 16.5857 6.24372 16.6499 6.53998 16.65H8.36253C8.93136 16.65 9.48895 16.4927 9.97273 16.1958C10.4565 15.899 10.8474 15.4742 11.1014 14.9693L12.2954 12.6L13.4893 14.9693C13.7434 15.4742 14.1343 15.899 14.618 16.1958C15.1018 16.4927 15.6594 16.65 16.2282 16.65H18.5671C19.136 16.65 19.6936 16.4927 20.1773 16.1958C20.6611 15.899 21.052 15.4742 21.3061 14.9693L22.5 12.6L23.6939 14.9693C23.948 15.4742 24.3389 15.899 24.8227 16.1958C25.3064 16.4927 25.864 16.65 26.4329 16.65H28.7718C29.3406 16.65 29.8982 16.4927 30.382 16.1958C30.8657 15.899 31.2566 15.4742 31.5107 14.9693L32.7046 12.6L33.8986 14.9693C34.1526 15.4742 34.5435 15.899 35.0273 16.1958C35.5111 16.4927 36.0686 16.65 36.6375 16.65H38.46C38.7563 16.6499 39.049 16.5857 39.3177 16.4621C39.5865 16.3384 39.8249 16.1582 40.0164 15.9339C40.2079 15.7096 40.3479 15.4466 40.4266 15.1632C40.5053 14.8799 40.521 14.5829 40.4724 14.2929L39.2539 7.03733C39.1346 6.32809 38.7656 5.68386 38.2125 5.21925C37.6594 4.75464 36.9581 4.49977 36.2334 4.5H8.76663C8.04193 4.49977 7.34064 4.75464 6.78754 5.21925C6.23444 5.68386 5.8654 6.32809 5.74606 7.03733Z" fill="#7879F1"/>
<path d="M38.25 37.4625V20.25H6.75V37.4625C6.75 38.2681 7.06829 39.0407 7.63486 39.6103C8.20143 40.18 8.96985 40.5 9.7711 40.5H15.7865V27H29.2136V40.5H35.2289C36.0301 40.5 36.7986 40.18 37.3651 39.6103C37.9317 39.0407 38.25 38.2681 38.25 37.4625Z" fill="#7879F1"/>
</svg>
