<svg width="45" height="46" viewBox="0 0 45 46" fill="none" xmlns="http://www.w3.org/2000/svg">
<path fill-rule="evenodd" clip-rule="evenodd" d="M42.6176 37.4245C43.7096 37.848 45 37.2127 45 36.2334V1.82451C45 0.845184 43.7096 0.209943 42.6176 0.633437C40.8107 1.71898 39.1469 2.83129 37.5389 3.9064C31.8744 7.69345 26.9002 11.0191 18.7868 11.088L7.94118 11.0891C3.54706 11.0891 0 14.636 0 19.0301C0 23.4241 3.54706 26.971 7.94118 26.971H18.5294C26.7967 26.971 31.8162 30.3264 37.5414 34.1535C39.1487 35.2279 40.8117 36.3395 42.6176 37.4245ZM21.1765 45.5H19.0853C17.9471 45.5 16.9412 44.7853 16.5971 43.7265L10.7735 32.265H21.1765C22.6384 32.265 23.8235 33.4501 23.8235 34.912V42.853C23.8235 44.3088 22.6324 45.5 21.1765 45.5Z" fill="#7879F1"/>
</svg>
