<svg width="60" height="60" viewBox="0 0 60 60" fill="none" xmlns="http://www.w3.org/2000/svg">
<path d="M44.455 22.155L32.7883 14.2C31.968 13.6355 30.9957 13.3333 30 13.3333C29.0042 13.3333 28.0319 13.6355 27.2116 14.2L15.545 22.155C14.8609 22.6239 14.3017 23.2529 13.9163 23.9872C13.5308 24.7216 13.3307 25.539 13.3333 26.3684V41.59C13.3244 42.9259 13.8459 44.2107 14.7833 45.1625C15.7207 46.1143 16.9975 46.6552 18.3333 46.6667H41.6666C43.0025 46.6552 44.2792 46.1143 45.2166 45.1625C46.154 44.2107 46.6755 42.9259 46.6666 41.59V26.3684C46.6693 25.539 46.4691 24.7216 46.0837 23.9872C45.6982 23.2529 45.1391 22.6239 44.455 22.155ZM26.6666 43.3333V35H33.3333V43.3333H26.6666ZM43.3333 41.59C43.3427 42.042 43.1726 42.4793 42.8602 42.806C42.5478 43.1328 42.1186 43.3224 41.6666 43.3333H36.6666V33.3333C36.6666 32.8913 36.491 32.4674 36.1785 32.1548C35.8659 31.8423 35.442 31.6667 35 31.6667H25C24.5579 31.6667 24.134 31.8423 23.8215 32.1548C23.5089 32.4674 23.3333 32.8913 23.3333 33.3333V43.3333H18.3333C17.8814 43.3224 17.4522 43.1328 17.1398 42.806C16.8274 42.4793 16.6572 42.042 16.6666 41.59V26.3684C16.6644 26.0818 16.7321 25.799 16.864 25.5445C16.9958 25.2901 17.1878 25.0717 17.4233 24.9084L29.09 16.9534C29.3576 16.7689 29.6749 16.6701 30 16.6701C30.325 16.6701 30.6424 16.7689 30.91 16.9534L42.5766 24.9084C42.8121 25.0717 43.0041 25.2901 43.136 25.5445C43.2678 25.799 43.3356 26.0818 43.3333 26.3684V41.59Z" fill="#7879F1"/>
</svg>
