<svg width="45" height="46" viewBox="0 0 45 46" fill="none" xmlns="http://www.w3.org/2000/svg">
<path d="M8.53541 29.75L11.7679 32.6593C12 32.8682 12.1841 33.1161 12.3097 33.3891C12.4353 33.662 12.5 33.9546 12.5 34.25C12.5 34.5454 12.4353 34.838 12.3097 35.1109C12.1841 35.3839 12 35.6318 11.7679 35.8407C11.5358 36.0496 11.2602 36.2154 10.9569 36.3284C10.6537 36.4415 10.3286 36.4997 10.0004 36.4997C9.67214 36.4997 9.3471 36.4415 9.04384 36.3284C8.74057 36.2154 8.46502 36.0496 8.23291 35.8407L0.732995 29.0907C0.500633 28.882 0.316291 28.634 0.190515 28.3611C0.06474 28.0881 0 27.7955 0 27.5C0 27.2045 0.06474 26.9119 0.190515 26.6389C0.316291 26.366 0.500633 26.118 0.732995 25.9093L8.23291 19.1593C8.46502 18.9503 8.74057 18.7846 9.04384 18.6716C9.3471 18.5585 9.67214 18.5003 10.0004 18.5003C10.3286 18.5003 10.6537 18.5585 10.9569 18.6716C11.2602 18.7846 11.5358 18.9503 11.7679 19.1593C12 19.3682 12.1841 19.6162 12.3097 19.8891C12.4353 20.162 12.5 20.4546 12.5 20.75C12.5 21.0454 12.4353 21.338 12.3097 21.6109C12.1841 21.8838 12 22.1318 11.7679 22.3407L8.53541 25.25H25.0002C25.6633 25.25 26.2991 25.4871 26.768 25.909C27.2368 26.331 27.5002 26.9033 27.5002 27.5C27.5002 28.0967 27.2368 28.669 26.768 29.091C26.2991 29.5129 25.6633 29.75 25.0002 29.75H8.53541ZM45 44C45 44.8284 44.3284 45.5 43.5 45.5H1.5005C0.672076 45.5 0.000503043 44.8284 0.000503024 44L0.000502953 40.75C0.000502928 39.6454 0.895934 38.75 2.0005 38.75H3.00045C4.10502 38.75 5.00045 39.6454 5.00045 40.75V41H40.0001V13.1405L22.5003 5.2655L5.00045 13.1405V14.25C5.00045 15.3546 4.10502 16.25 3.00045 16.25H2.0005C0.895934 16.25 0.000502909 15.3546 0.000502909 14.25V11.75C0.000502909 10.8973 0.535497 10.1187 1.38299 9.73625L21.3828 0.73625C22.0853 0.42125 22.9152 0.42125 23.6177 0.73625L43.6175 9.73625C44.465 10.1187 45 10.8973 45 11.75V44Z" fill="#7879F1"/>
</svg>
