<svg width="55" height="56" viewBox="0 0 55 56" fill="none" xmlns="http://www.w3.org/2000/svg">
<path opacity="0.3" d="M16.0416 32.5833H22.9166V39.4583H16.0416V32.5833ZM16.0416 16.5417H22.9166V23.4167H16.0416V16.5417ZM11.4583 44.0417H43.5416V11.9583H11.4583V44.0417ZM29.7916 17.6875H41.25V22.2708H29.7916V17.6875ZM29.7916 33.7292H41.25V38.3125H29.7916V33.7292ZM13.75 14.25H25.2083V25.7083H13.75V14.25ZM13.75 30.2917H25.2083V41.75H13.75V30.2917Z" fill="#7879F1"/>
<path d="M29.7917 17.6875H41.25V22.2708H29.7917V17.6875ZM29.7917 33.7292H41.25V38.3125H29.7917V33.7292ZM43.5417 7.375H11.4583C8.9375 7.375 6.875 9.4375 6.875 11.9583V44.0417C6.875 46.5625 8.9375 48.625 11.4583 48.625H43.5417C46.0625 48.625 48.125 46.5625 48.125 44.0417V11.9583C48.125 9.4375 46.0625 7.375 43.5417 7.375ZM43.5417 44.0417H11.4583V11.9583H43.5417V44.0417ZM25.2083 14.25H13.75V25.7083H25.2083V14.25ZM22.9167 23.4167H16.0417V16.5417H22.9167V23.4167ZM25.2083 30.2917H13.75V41.75H25.2083V30.2917ZM22.9167 39.4583H16.0417V32.5833H22.9167V39.4583Z" fill="#7879F1"/>
</svg>
