<svg width="60" height="60" viewBox="0 0 60 60" fill="none" xmlns="http://www.w3.org/2000/svg">
<path d="M31.6667 36.6667H21.6667C21.2246 36.6667 20.8007 36.8423 20.4881 37.1549C20.1756 37.4675 20 37.8914 20 38.3334C20 38.7754 20.1756 39.1994 20.4881 39.5119C20.8007 39.8245 21.2246 40.0001 21.6667 40.0001H31.6667C32.1087 40.0001 32.5326 39.8245 32.8452 39.5119C33.1577 39.1994 33.3333 38.7754 33.3333 38.3334C33.3333 37.8914 33.1577 37.4675 32.8452 37.1549C32.5326 36.8423 32.1087 36.6667 31.6667 36.6667ZM25 26.6667H28.3333C28.7754 26.6667 29.1993 26.4911 29.5118 26.1786C29.8244 25.866 30 25.4421 30 25.0001C30 24.558 29.8244 24.1341 29.5118 23.8216C29.1993 23.509 28.7754 23.3334 28.3333 23.3334H25C24.558 23.3334 24.134 23.509 23.8215 23.8216C23.5089 24.1341 23.3333 24.558 23.3333 25.0001C23.3333 25.4421 23.5089 25.866 23.8215 26.1786C24.134 26.4911 24.558 26.6667 25 26.6667ZM45 30.0001H40V15.0001C40.0012 14.7064 39.9247 14.4176 39.7784 14.163C39.632 13.9084 39.421 13.6969 39.1667 13.5501C38.9133 13.4038 38.6259 13.3268 38.3333 13.3268C38.0408 13.3268 37.7534 13.4038 37.5 13.5501L32.5 16.4167L27.5 13.5501C27.2466 13.4038 26.9592 13.3268 26.6667 13.3268C26.3741 13.3268 26.0867 13.4038 25.8333 13.5501L20.8333 16.4167L15.8333 13.5501C15.58 13.4038 15.2926 13.3268 15 13.3268C14.7074 13.3268 14.42 13.4038 14.1667 13.5501C13.9123 13.6969 13.7013 13.9084 13.555 14.163C13.4086 14.4176 13.3322 14.7064 13.3333 15.0001V41.6667C13.3333 42.9928 13.8601 44.2646 14.7978 45.2023C15.7355 46.14 17.0072 46.6667 18.3333 46.6667H41.6667C42.9927 46.6667 44.2645 46.14 45.2022 45.2023C46.1399 44.2646 46.6667 42.9928 46.6667 41.6667V31.6667C46.6667 31.2247 46.4911 30.8008 46.1785 30.4882C45.8659 30.1757 45.442 30.0001 45 30.0001ZM18.3333 43.3334C17.8913 43.3334 17.4674 43.1578 17.1548 42.8453C16.8423 42.5327 16.6667 42.1088 16.6667 41.6667V17.8834L20 19.7834C20.2572 19.9178 20.5431 19.9879 20.8333 19.9879C21.1235 19.9879 21.4094 19.9178 21.6667 19.7834L26.6667 16.9167L31.6667 19.7834C31.9239 19.9178 32.2098 19.9879 32.5 19.9879C32.7902 19.9879 33.0761 19.9178 33.3333 19.7834L36.6667 17.8834V41.6667C36.6712 42.2353 36.7726 42.799 36.9667 43.3334H18.3333ZM43.3333 41.6667C43.3333 42.1088 43.1577 42.5327 42.8452 42.8453C42.5326 43.1578 42.1087 43.3334 41.6667 43.3334C41.2246 43.3334 40.8007 43.1578 40.4881 42.8453C40.1756 42.5327 40 42.1088 40 41.6667V33.3334H43.3333V41.6667ZM31.6667 30.0001H21.6667C21.2246 30.0001 20.8007 30.1757 20.4881 30.4882C20.1756 30.8008 20 31.2247 20 31.6667C20 32.1088 20.1756 32.5327 20.4881 32.8453C20.8007 33.1578 21.2246 33.3334 21.6667 33.3334H31.6667C32.1087 33.3334 32.5326 33.1578 32.8452 32.8453C33.1577 32.5327 33.3333 32.1088 33.3333 31.6667C33.3333 31.2247 33.1577 30.8008 32.8452 30.4882C32.5326 30.1757 32.1087 30.0001 31.6667 30.0001Z" fill="#7879F1"/>
</svg>
