<svg width="20" height="20" viewBox="0 0 20 20" fill="none" xmlns="http://www.w3.org/2000/svg">
<path d="M3.51947 4.90523L3.01178 7.49237C2.92539 7.93259 3.3251 8.33332 3.85057 8.33332H4.60951C5.09265 8.33332 5.53432 8.10149 5.75039 7.73447L6.2482 6.88888L6.74601 7.73447C6.96207 8.10149 7.40375 8.33332 7.88688 8.33332H8.86131C9.34445 8.33332 9.78612 8.10149 10.0022 7.73447L10.5 6.88888L10.9978 7.73447C11.2139 8.10149 11.6555 8.33332 12.1387 8.33332H13.1131C13.5963 8.33332 14.0379 8.10149 14.254 7.73447L14.7518 6.88888L15.2496 7.73447C15.4657 8.10149 15.9074 8.33332 16.3905 8.33332H17.1494C17.6749 8.33332 18.0746 7.93259 17.9882 7.49237L17.4805 4.90523C17.378 4.38286 16.8459 4 16.2223 4H4.77766C4.15412 4 3.62198 4.38286 3.51947 4.90523Z" fill="#0D6EDF"/>
<path d="M17.3029 9.77778H3.69711V15.9167C3.69711 16.515 4.26819 17 4.97266 17H7.94892V11.9444H13.0511V17H16.0273C16.7318 17 17.3029 16.515 17.3029 15.9167V9.77778Z" fill="#0D6EDF"/>
<path d="M14.2222 0C12.9949 0 12 0.994923 12 2.22222V2.42146C12 4.79247 13.3133 6.70881 15.8211 7.95793C15.9337 8.01402 16.0663 8.01402 16.1789 7.95793C18.6867 6.70881 20 4.79247 20 2.42146V2.22222C20 0.994923 19.0051 0 17.7778 0C17.0508 0 16.4054 0.349042 16 0.888674C15.5946 0.349042 14.9492 0 14.2222 0Z" fill="#0D6EDF"/>
</svg>
